<?xml version="1.0" standalone="no"?>
<!DOCTYPE svg PUBLIC "-//W3C//DTD SVG 20010904//EN"
 "http://www.w3.org/TR/2001/REC-SVG-20010904/DTD/svg10.dtd">
<svg version="1.0" xmlns="http://www.w3.org/2000/svg"
 width="700.000000pt" height="700.000000pt" viewBox="0 0 700.000000 700.000000"
 preserveAspectRatio="xMidYMid meet">
<metadata>
Created by potrace 1.14, written by Peter Selinger 2001-2017
</metadata>
<g transform="translate(0.000000,700.000000) scale(0.100000,-0.100000)"
fill="#000000" stroke="none">
<path d="M2045 6987 c-35 -12 -83 -61 -92 -95 -20 -82 40 -361 127 -582 86
-222 227 -445 368 -586 l72 -72 -62 -49 c-191 -151 -415 -387 -581 -613 -27
-36 -53 -72 -60 -80 -7 -8 -43 -61 -80 -118 -284 -428 -542 -977 -687 -1462
-52 -172 -101 -370 -114 -454 -4 -21 -8 -41 -10 -45 -2 -3 -7 -31 -11 -61 -4
-30 -9 -58 -10 -61 -2 -3 -6 -32 -10 -65 -3 -33 -7 -70 -10 -83 -30 -157 -20
-570 19 -746 54 -243 136 -458 250 -649 129 -217 339 -449 553 -612 165 -125
430 -273 608 -339 153 -58 370 -123 463 -140 14 -2 48 -9 76 -14 62 -13 96
-18 155 -27 25 -3 57 -7 70 -10 165 -25 684 -25 842 1 13 2 47 6 74 10 28 3
57 8 65 10 8 2 32 6 53 9 81 12 195 39 310 72 585 170 1054 495 1355 937 271
398 387 854 349 1367 -4 52 -9 110 -12 128 -2 18 -7 52 -10 75 -13 102 -17
126 -30 192 -8 39 -16 81 -19 95 -54 283 -206 743 -353 1070 -90 199 -259 524
-314 602 -11 14 -19 28 -19 31 0 10 -161 249 -233 347 -99 135 -193 248 -292
350 l-59 62 39 -7 c61 -10 163 -44 235 -78 79 -38 182 -136 200 -193 7 -22 17
-45 23 -51 5 -7 7 -13 3 -13 -4 0 3 -18 14 -40 65 -128 261 -77 260 68 0 47
-54 185 -97 247 -44 66 -102 123 -175 173 -50 34 -191 105 -228 115 -22 6 -20
8 22 49 100 95 182 238 180 315 -1 80 -56 134 -136 135 -67 1 -101 -25 -142
-111 -67 -142 -173 -216 -317 -220 l-69 -2 40 48 c146 176 282 453 361 735 35
127 39 148 47 258 6 78 4 88 -18 120 -42 62 -67 68 -271 68 -432 -1 -732 -83
-934 -254 -28 -24 -55 -44 -60 -44 -4 1 -20 18 -35 40 -55 79 -185 163 -301
193 -81 21 -223 16 -312 -13 -140 -44 -291 -133 -410 -241 -29 -27 -58 -49
-63 -49 -14 0 -121 62 -202 118 -85 59 -185 140 -234 191 -48 49 -106 67 -161
48z"/>
</g>
</svg>
